# xmcd
#
# Track frame offsets:
#	150
#	953
#	16815
#	34159
#	54115
#	56364
#	71273
#	86153
#	90901
#	107949
#	119193
#	135001
#	148059
#	160349
#
# Disc length: 2320 seconds
#
# Revision: 3
# Processed by: cddbd v1.5.2PL0 Copyright (c) Steve Scherf et al.
# Submitted via: audiograbber 1.83.01
#
DISCID=a7090e0e
DTITLE=Big and Rich - Between raising hell and amazing grace
DYEAR=2007
DGENRE=Country
TTITLE0=Intro
TTITLE1=Lost in this moment
TTITLE2=Between raising hell and amazing grace
TTITLE3=Faster than angels fly
TTITLE4=Eternity intro (feat. John Legend)
TTITLE5=Eternity
TTITLE6=When the devil gets the best of me
TTITLE7=Radio intro
TTITLE8=Radio
TTITLE9=You never stop loving somebody
TTITLE10=High five
TTITLE11=Please man (feat. Wyclef Jean)
TTITLE12=You shook me all night long
TTITLE13=Loud
EXTD=
EXTT0=
EXTT1=
EXTT2=
EXTT3=
EXTT4=
EXTT5=
EXTT6=
EXTT7=
EXTT8=
EXTT9=
EXTT10=
EXTT11=
EXTT12=
EXTT13=
PLAYORDER=
